<svg xmlns="http://www.w3.org/2000/svg" viewBox="0 0 29 29" id="repeat"><path fill="none" stroke="#000" stroke-miterlimit="10" stroke-width="2" d="M3 13.5a4 4 0 0 1 4-4h15"></path><path d="M19.5 11.912V7.088c0-.368.401-.596.717-.408l4.052 2.412a.474.474 0 0 1 0 .815l-4.052 2.412a.474.474 0 0 1-.717-.407z"></path><path fill="none" stroke="#000" stroke-miterlimit="10" stroke-width="2" d="M26 15.5a4 4 0 0 1-4 4H7"></path><path d="M9.5 17.088v4.823a.475.475 0 0 1-.717.408l-4.052-2.412a.474.474 0 0 1 0-.815l4.052-2.412a.475.475 0 0 1 .717.408z"></path></svg>